# xmcd
#
# Track frame offsets:
#	150
#	11575
#	23742
#	34725
#	47877
#	61715
#	72285
#	84845
#	97887
#	110890
#	120522
#	133135
#	142382
#	153112
#	166475
#	179810
#	190707
#
# Disc length: 2679 seconds
#
# Revision: 244956724
# Processed by: cddbd v1.5.2PL0 Copyright (c) Steve Scherf et al.
# Submitted via: EZCDAudioConverter 8.3.2.1
#
DISCID=e70a7511
DTITLE=FREDDY FENDER - THE BEST...FREDDY FENDER
DYEAR=2013
DGENRE=Indie - Alternative
TTITLE0=BEFORE THE NEXT TEARDROP FALLS
TTITLE1=WASTED DAYS AND WASTED NIGHTS
TTITLE2=MATHILDA
TTITLE3=SILVER WINGS
TTITLE4=BABY I WANT TO LOVE YOU
TTITLE5=A MAN CAN CRY
TTITLE6=ALMOST PERSUADED
TTITLE7=THE GIRL WHO WAITS ON TABLES
TTITLE8=GOING OUT WITH THE TIDE
TTITLE9=BUT I DO
TTITLE10=ENTER MY HEART
TTITLE11=RUNNING BACK
TTITLE12=WILD SIDE OF LIFE
TTITLE13=JUST BECAUSE
TTITLE14=MEAN WOMAN BLUES
TTITLE15=THE RAIN CAME
TTITLE16=CRAZY BABY
EXTD=
EXTT0=
EXTT1=
EXTT2=
EXTT3=
EXTT4=
EXTT5=
EXTT6=
EXTT7=
EXTT8=
EXTT9=
EXTT10=
EXTT11=
EXTT12=
EXTT13=
EXTT14=
EXTT15=
EXTT16=
PLAYORDER=
